<svg width="500" height="300" xmlns="http://www.w3.org/2000/svg">
    <!-- Mission Cards Area -->
    <rect x="10" y="10" width="100" height="60" fill="lightgray" />
    <text x="15" y="25" font-size="12" fill="black">Mission Cards</text>

    <!-- Deck Area -->
    <rect x="420" y="10" width="60" height="80" fill="lightgray" />
    <text x="430" y="25" font-size="12" fill="black">Deck</text>

    <!-- Discard Pile Area -->
    <rect x="420" y="100" width="60" height="80" fill="lightgray" />
    <text x="430" y="115" font-size="12" fill="black">Discard Pile</text>

    <!-- Loadout Area -->
    <rect x="10" y="90" width="100" height="80" fill="lightgray" />
    <text x="20" y="105" font-size="12" fill="black">Loadout</text>

    <!-- Battlefield Area -->
    <rect x="120" y="10" width="280" height="230" fill="lightgray" />
    <text x="120" y="30" font-size="12" fill="black">Battlefield</text>

    <!-- Front Left Flank -->
    <rect x="130" y="50" width="80" height="80" fill="gray" />
    <text x="140" y="80" font-size="12" fill="black">Left Front Flank</text>

    <!-- Back Left Flank -->
    <rect x="130" y="140" width="80" height="80" fill="gray" />
    <text x="140" y="170" font-size="12" fill="black">Left Back Flank</text>

    <!-- Front Center -->
    <rect x="220" y="50" width="80" height="80" fill="gray" />
    <text x="230" y="80" font-size="12" fill="black">Front Center</text>

    <!-- Back Center -->
    <rect x="220" y="140" width="80" height="80" fill="gray" />
    <text x="230" y="170" font-size="12" fill="black">Back Center</text>

    <!-- Front Right Flank -->
    <rect x="310" y="50" width="80" height="80" fill="gray" />
    <text x="320" y="80" font-size="12" fill="black">Right Front Flank</text>

    <!-- Back Right Flank -->
    <rect x="310" y="140" width="80" height="80" fill="gray" />
    <text x="320" y="170" font-size="12" fill="black">Right Back Flank</text>
</svg>
